<?xml version="1.0" encoding="utf-8"?>
<!-- Generator: Adobe Illustrator 19.1.0, SVG Export Plug-In . SVG Version: 6.00 Build 0)  -->
<!DOCTYPE svg PUBLIC "-//W3C//DTD SVG 1.1//EN" "http://www.w3.org/Graphics/SVG/1.1/DTD/svg11.dtd">
<svg version="1.1" id="Layer_1" xmlns="http://www.w3.org/2000/svg" xmlns:xlink="http://www.w3.org/1999/xlink" x="0px" y="0px"
	 viewBox="0 0 251.2 114.9" style="enable-background:new 0 0 251.2 114.9;" xml:space="preserve">
<path d="M58,179.9"/>
<path d="M251.2,112.9c0,0.7,0,1.3,0,2H0c0-0.2,0-0.3,0-0.5c0-26.2,19.2-47.5,42.9-47.5c1.2,0,2.4,0,3.5,0.2
	c-0.2-2.2-0.3-4.4-0.3-6.7C46.1,27,67.9,0,94.8,0c17.7,0,33.3,11.7,41.8,29.3c7.9-13.6,20-22.3,33.6-22.3
	c23.7,0,42.9,26.4,42.9,58.9c0,2.7-0.1,5.4-0.4,8.1c1-0.1,2.1-0.2,3.1-0.2C235.4,73.8,251.2,91.3,251.2,112.9z"/>
</svg>
