<?xml version="1.0" encoding="utf-8"?>
<!-- Generator: Adobe Illustrator 19.1.0, SVG Export Plug-In . SVG Version: 6.00 Build 0)  -->
<!DOCTYPE svg PUBLIC "-//W3C//DTD SVG 1.1//EN" "http://www.w3.org/Graphics/SVG/1.1/DTD/svg11.dtd">
<svg version="1.1" xmlns="http://www.w3.org/2000/svg" xmlns:xlink="http://www.w3.org/1999/xlink" x="0px" y="0px"
	 viewBox="0 0 401.4 319" style="enable-background:new 0 0 401.4 319;" xml:space="preserve">
<style type="text/css">
	.st0{fill:#FFFFFF;}
</style>
<g id="Layer_1">
	<g>
		<polygon class="st0" points="336.1,217.6 335.3,218.4 335.9,217.6 		"/>
		<path d="M335.9,217.6l-0.6,0.8l0.8-0.8L335.9,217.6z M335.9,217.6l-0.6,0.8l0.8-0.8L335.9,217.6z M335.9,217.6l-0.6,0.8l0.8-0.8
			L335.9,217.6z"/>
	</g>
	<g>
		<path class="st0" d="M226.6,76.7L226.6,76.7c0-0.1,0-0.1,0-0.2C226.6,76.5,226.6,76.6,226.6,76.7z M226.6,76.7L226.6,76.7
			c0-0.1,0-0.1,0-0.2C226.6,76.5,226.6,76.6,226.6,76.7z M226.6,76.7L226.6,76.7c0-0.1,0-0.1,0-0.2
			C226.6,76.5,226.6,76.6,226.6,76.7z M226.6,76.7L226.6,76.7c0-0.1,0-0.1,0-0.2C226.6,76.5,226.6,76.6,226.6,76.7z M226.6,76.7
			L226.6,76.7c0-0.1,0-0.1,0-0.2C226.6,76.5,226.6,76.6,226.6,76.7z M226.6,76.7L226.6,76.7c0-0.1,0-0.1,0-0.2
			C226.6,76.5,226.6,76.6,226.6,76.7z M226.6,76.7L226.6,76.7c0-0.1,0-0.1,0-0.2C226.6,76.5,226.6,76.6,226.6,76.7z M335.9,217.6
			l-0.6,0.8l0.8-0.8L335.9,217.6z M126.8,181.3c0,0,0,0.1,0,0.1l0.2,0C126.9,181.4,126.9,181.3,126.8,181.3z M226.6,76.7L226.6,76.7
			c0-0.1,0-0.1,0-0.2C226.6,76.5,226.6,76.6,226.6,76.7z M226.6,76.7L226.6,76.7c0-0.1,0-0.1,0-0.2
			C226.6,76.5,226.6,76.6,226.6,76.7z M226.6,76.7L226.6,76.7c0-0.1,0-0.1,0-0.2C226.6,76.5,226.6,76.6,226.6,76.7z M226.6,76.7
			L226.6,76.7c0-0.1,0-0.1,0-0.2C226.6,76.5,226.6,76.6,226.6,76.7z M226.6,76.7L226.6,76.7c0-0.1,0-0.1,0-0.2
			C226.6,76.5,226.6,76.6,226.6,76.7z M226.6,76.7L226.6,76.7c0-0.1,0-0.1,0-0.2C226.6,76.5,226.6,76.6,226.6,76.7z M226.6,76.7
			L226.6,76.7c0-0.1,0-0.1,0-0.2C226.6,76.5,226.6,76.6,226.6,76.7z M226.6,76.7L226.6,76.7c0-0.1,0-0.1,0-0.2
			C226.6,76.5,226.6,76.6,226.6,76.7z M226.6,76.7L226.6,76.7c0-0.1,0-0.1,0-0.2C226.6,76.5,226.6,76.6,226.6,76.7z"/>
		<path d="M335.9,217.6l-0.6,0.8l0.8-0.8L335.9,217.6z M335.9,217.6l-0.6,0.8l0.8-0.8L335.9,217.6z"/>
	</g>
	<g>
		<path class="st0" d="M226.6,76.4c0,0.1,0,0.1,0,0.2h0C226.6,76.6,226.6,76.5,226.6,76.4z"/>
		<path class="st0" d="M68.5,72.2c-0.1-0.1-0.2-0.2-0.2-0.3c0,0-0.1-0.1-0.1-0.1c0.1-0.1,0.2-0.2,0.3-0.3
			C68.5,71.7,68.5,71.9,68.5,72.2z"/>
		<path class="st0" d="M126.8,181.3c0,0,0,0.1,0,0.1l0.2,0C126.9,181.4,126.9,181.3,126.8,181.3z"/>
		<path d="M226.6,76.7L226.6,76.7c0-0.1,0-0.1,0-0.2C226.6,76.5,226.6,76.6,226.6,76.7z"/>
	</g>
	<g>
		<path d="M94,87.7c-5.9,0-10.5,6.4-10.5,14.5s4.6,14.5,10.5,14.5s10.5-6.4,10.5-14.5S99.9,87.7,94,87.7z M94,111.7
			c-2.6,0-5.5-3.9-5.5-9.5c0-5.6,2.9-9.5,5.5-9.5s5.5,3.9,5.5,9.5C99.5,107.8,96.6,111.7,94,111.7z"/>
	</g>
	<g>
		<path d="M126.9,181.4l-0.2,0c0,0,0-0.1,0-0.1C126.9,181.3,126.9,181.4,126.9,181.4z"/>
	</g>
	<g>
		<path class="st0" d="M68.5,71.5c-0.1,0.1-0.2,0.2-0.3,0.3c0,0,0.1,0.1,0.1,0.1c0.1,0.1,0.2,0.2,0.2,0.3
			C68.5,71.9,68.5,71.7,68.5,71.5z"/>
	</g>
	<g>
		<path class="st0" d="M226.6,76.7L226.6,76.7c0-0.1,0-0.1,0-0.2C226.6,76.5,226.6,76.6,226.6,76.7z"/>
		<path d="M226.6,76.7L226.6,76.7c0-0.1,0-0.1,0-0.2C226.6,76.5,226.6,76.6,226.6,76.7z M226.6,76.7L226.6,76.7c0-0.1,0-0.1,0-0.2
			C226.6,76.5,226.6,76.6,226.6,76.7z M226.6,76.7L226.6,76.7c0-0.1,0-0.1,0-0.2C226.6,76.5,226.6,76.6,226.6,76.7z"/>
	</g>
	<g>
		<path class="st0" d="M68.5,71.5c-0.1,0.1-0.2,0.2-0.3,0.3c0,0,0.1,0.1,0.1,0.1c0.1,0.1,0.2,0.2,0.2,0.3
			C68.5,71.9,68.5,71.7,68.5,71.5z"/>
		<path d="M226.6,76.7L226.6,76.7c0-0.1,0-0.1,0-0.2C226.6,76.5,226.6,76.6,226.6,76.7z"/>
		<path d="M401.2,118.8c-1.1-5.8-5.6-10.4-13.3-13.7c2.5-4,6.2-11.7,3.4-18.3c-2-4.8-7-7.9-14.6-9.4c3.3-4.7,8-13.4,4.9-20.8
			C378.8,50,370.9,46.1,358,45c1.4-3.3,2.7-8.1,0.2-11.8c-2.5-3.8-8-5.1-16.6-3.8c-1.6-3.6-5.4-11-11.7-12.9
			c-2.9-0.9-5.9-0.5-8.8,1.1c-1.6-3.1-4.9-7.8-10.5-9.6c-5.1-1.6-10.8-0.3-17,3.8c-2.8-3.7-9.2-10.8-17-11c-4.7-0.1-9,2.2-12.9,6.8
			c-3.7-3.2-11.6-8.9-18.5-7.3c-3.3,0.8-5.8,3-7.6,6.6c-4.2-1.7-13.1-4.4-19.9-0.6c-4.8,2.6-7.5,7.7-8.2,15.2l-0.9,1.5
			c-1.3,0.2-2.5,0.4-3.5,0.6c-0.6-3.8-2.2-6.6-5-8.4c-5.5-3.7-13.8-1.8-17.9-0.6c-2-4.2-4.8-6.9-8.6-8c-6.4-2-13.5,1.3-17.1,3.4
			c-2.6-4.2-5.8-6.5-9.6-6.8c-6-0.5-11.3,4.3-14,7.2c-3.8-3.2-7.9-4.7-12.3-4.3c-8.2,0.6-14.8,7.4-17.8,10.9
			c-4.6-3.1-9.1-4.2-13.5-3.2c-6.5,1.5-10.6,7.4-12.4,10.5C72,23,67.8,23.5,64.8,26c-4.2,3.5-4.3,9.8-4.1,12.9
			c-4,2.5-6.1,5.6-6.3,9.2c-0.3,5.1,3.5,9.6,6.4,12.3C43.2,70.2-0.5,97.2,0,121.2c0.2,9.5,6.9,17.3,20,23.3
			c3.4,1.6,6.8,2.6,10.3,2.6c4.3,0,8.7-1.4,13.6-5.1c3.6,15,11,28.5,21.8,39.3c11.6,11.6,26.3,19.4,43.1,23.1
			c-1,4.2-1.4,9.3,0.4,13.6c-6.3,10.3-17.9,27.3-25.6,30.7c-5.4,2.4-8.6,7.6-8.5,13.9c0.1,4.3,2.4,19.3,28.6,29.7
			c2.3,0.9,4.6,1.4,6.9,1.4c3,0,6-0.8,8.9-2.4c13.9-7.6,23.7-32.5,29.4-51.7c1.4-0.5,2.9-1.1,4.5-1.8c0.9,2.2,2.4,5.4,4.9,7.9
			c-4.1,12.5-10.3,28-16.2,32.9c-5,4.1-6.9,10.5-5,17c1.3,4.6,8.1,19.7,38.9,23.4c0.9,0.1,1.8,0.1,2.6,0.1c5.2,0,9.8-1.9,13.8-5.7
			c12.4-11.9,15.8-40.8,16.5-62.8h0c1.4-1.1,2.7-2.3,4.1-3.8c3.7,3.3,12.6,9.8,22.6,9.2c6.2-0.4,11.8-3.5,16.6-9.1
			c1.4,1.1,3.5,2.5,6.1,3.5c-0.2,12-1.6,33-6.5,39.9c-3.5,4.8-3.6,10.9-0.3,16.2c4.8,7.8,15.1,12,28.6,12c3.5,0,7.2-0.3,11.1-0.9
			c5.7-0.9,10.1-3.8,13.1-8.8c9.4-15.7,2.4-48.6-3-68c3.4,0.4,7.1,0.4,11.1-0.4c3.3,12.6,8.3,36.8,4.8,45.9
			c-2.3,6.1-0.7,12.5,4.3,17.2c4.7,4.4,11.4,6.7,19.4,6.7c7.7,0,16.6-2.1,26-6.2c5.8-2.5,9.6-6.9,11.3-13.1
			c5.5-19.2-11.1-51.8-22.4-71c3.1-1.3,6.1-3.2,8.8-5.9c6.7-6.7,9.3-16.8,7.9-29.9c5.2-1.5,17.8-6.1,22.3-16.8
			c3.1-7.4,1.8-16-3.9-25.7C394.8,138,403,128.4,401.2,118.8z M59.4,48.3c0.1-2.2,1.8-4.2,5.2-6l1.6-0.8l-0.3-1.8
			c-0.3-2-0.5-7.7,2.2-10c2.3-2,6.5-1.1,9.6,0l2.2,0.8l0.9-2.1c0-0.1,3.8-8.2,10.1-9.7c3.4-0.8,7.2,0.4,11.2,3.7l2.1,1.7l1.5-2.2
			c0.1-0.1,7.1-10.1,15.6-10.8c3.7-0.3,7,1.3,10.3,4.7l2.1,2.2l1.8-2.4c1.6-2.2,6.8-7.8,11.4-7.4c2.6,0.2,4.9,2.4,6.9,6.5l1.3,2.7
			l2.4-1.8c0.1-0.1,8.6-6.2,15-4.2c2.8,0.9,4.9,3.2,6.2,7.2l0.9,2.5l2.5-1c2.9-1.2,11.2-3.6,15.5-0.7c2,1.3,3,3.8,3,7.4l0,3.5
			l3.3-1.1c0,0,0.7-0.2,1.7-0.5c0.9-0.2,2-0.5,3.2-0.7c1-0.1,2-0.3,3.1-0.3c3.5-0.2,7.5,0.1,10.4,2.2c2.7,1.9,3.9,5.1,3.9,9.7v2.6
			l2.6-0.1c0.9,0,4.5,0.2,5.5,2.1c0.5,0.9,1.1,3.8-4,10.9l-0.5,0.8l0.1,1c0,0,0,0.3,0.1,0.9v0c0,0.7,0,1.7,0,2.8
			c0,0.8-0.1,1.8-0.3,2.7c-0.4,2.4-1.1,5-2.7,6.8c-0.2,0.3-0.5,0.6-0.8,0.9c-0.2,0.1-0.4,0.3-0.5,0.4c-0.4,0.3-0.9,0.5-1.3,0.7
			c-0.1,0.1-0.2,0.1-0.4,0.2c-0.7,0.2-1.5,0.4-2.2,0.5c-0.3,0-0.6,0-0.9,0c-3.6,0-7.6-1.5-10.9-3.1l-1.4-0.7l-1.2,1
			c-0.1,0.1-7.1,5.7-13.8,4.4c-2.2-0.4-4.1-1.6-5.8-3.4c-0.6-0.6-1.1-1.3-1.7-2.1c-0.4-0.6-0.7-1.2-1.1-1.8l-0.4-0.7l-2-3.8
			l-2.1,4.7c-0.8,1.9-3.8,7-7.5,7.6c-2.2,0.4-4.6-0.8-7.2-3.6l-1.9-2l-1.8,2.1c-2.1,2.5-8.9,8.8-14.8,8c-3.2-0.4-6-2.9-8.2-7.5
			l-2.3-4.6l-2.2,4.7c0,0.1-3.1,6.5-8.9,7.6c-4.1,0.8-8.7-1.3-13.8-6.2l-2.8-2.7l-1.3,3.7c0,0-1.6,4.4-5.7,5.8
			c-3.5,1.2-8.1-0.1-13.5-3.9l-0.8-0.5L86.6,76c-2.6,0.3-8.2,0.5-12.8-0.8c-0.9-0.3-1.8-0.6-2.6-1c-1-0.5-1.9-1.2-2.6-2
			c-0.1-0.1-0.2-0.2-0.2-0.3c0,0-0.1-0.1-0.1-0.1c-0.5-0.7-0.9-1.5-1.2-2.4c-0.2-1-0.3-2-0.2-3.2c0.1-1,0.3-2,0.6-3.1
			c0.1-0.4,0.3-0.9,0.4-1.4l0.6-1.8l-0.7-0.5l-0.9-0.6c-0.4-0.2-0.8-0.6-1.4-1C63,55.7,59.2,51.8,59.4,48.3z M245.3,129.1
			c-2.5-2.9-5.1-6.5-8-10.8c-8.7-13.1-10.8-28-10.8-39.6c0-0.7,0-1.4,0-2.1c0-0.1,0-0.1,0-0.2c0,0.1,0,0.1,0,0.2
			c0.3-0.1,0.7-0.3,1-0.5c0.3-0.2,0.6-0.4,0.9-0.6c0.4-0.3,0.8-0.6,1.1-0.9c2.6-2.3,3.9-5.6,4.6-8.7c6.4,3.7,15.2,9.1,24.1,15.4
			c21.2,15.3,32.2,29,32,39.7c-0.2,7.4-5.9,13.7-17.1,18.8c-6.2,2.8-13.1,4.4-23.6-6c-0.7-0.7-1.4-1.5-2.2-2.3c0,0,0,0,0,0
			C246.8,130.9,246,130,245.3,129.1z M45.1,134.5c-0.8,0.7-1.5,1.4-2.2,2c-8.9,7.5-15.1,6-20.7,3.5C10.9,134.8,5.2,128.5,5,121.1
			c-0.2-10.7,10.8-24.4,32-39.7c9.2-6.7,18.5-12.2,24.9-15.9c-0.2,1.9-0.1,3.7,0.4,5.3c0.2,0.9,0.6,1.7,1,2.5
			c0.3,0.6,0.7,1.2,1.2,1.7c0.1,0.1,0.2,0.2,0.3,0.4c1.1,1.3,2.5,2.3,4,3c0.1,11.6-2,26.7-10.8,39.9c-4,5.9-7.5,10.5-10.7,13.9
			C46.5,133.1,45.8,133.8,45.1,134.5z M69.3,177.8c-10.7-10.7-17.9-24.4-21-39.4c4.2-4,8.8-9.6,13.9-17.2
			c9.1-13.6,11.6-28.8,11.7-40.8c5.1,1.2,10.3,0.9,12.4,0.7c4.7,3.1,9,4.6,12.9,4.6c1.5,0,2.9-0.2,4.3-0.7c3.6-1.2,5.9-3.7,7.2-5.7
			c5.5,4.5,10.8,6.3,15.8,5.3c4.7-0.9,8.1-4,10.1-6.6c2.7,3.9,6.1,6.1,10,6.6c7.3,0.9,14.2-4.8,17.4-7.9c3.2,2.7,6.5,3.8,9.8,3.2
			c1.5-0.3,3-0.9,4.2-1.7c2.1-1.4,3.7-3.3,4.9-5c0.1,0.2,0.3,0.4,0.5,0.6c0.6,0.7,1.2,1.3,1.8,1.9c2.2,2,4.7,3.3,7.4,3.8
			c7.1,1.4,13.9-2.6,16.6-4.5c4.7,2.1,8.8,3,12.4,2.9c-0.2,12.4,2,28.7,11.7,43.3c3.8,5.8,7.5,10.5,11,14.3
			c-9.2,38.1-64.2,66.3-112.1,66.3c-5.8,0-11.3-0.4-16.7-1.3c-0.8-0.1-1.7-0.3-2.5-0.4c-0.8-0.1-1.7-0.3-2.5-0.5
			C94.3,196.1,80.3,188.8,69.3,177.8z M141.5,246.9c-7.3,21.5-15.7,35.4-24.2,40c-3.8,2.1-7.6,2.3-11.5,0.7
			c-18.5-7.4-25.3-17.9-25.5-25.2c-0.1-4.2,2-7.6,5.5-9.2c8.9-4,20.6-21.1,26.6-30.8c2.9,2.7,7.2,4.2,12.8,4.4
			c-0.1,3.6,0.4,9.5,4.8,12.8c3.1,2.4,7.6,3,13.2,1.7C142.8,243.1,142.2,245,141.5,246.9z M203.5,259.7c-1.6,25.2-6.6,42.5-14.5,50
			c-3.5,3.4-7.6,4.8-12.3,4.2c-22.1-2.6-32.4-11.9-34.7-19.8c-1.3-4.5-0.1-8.9,3.4-11.7c7-5.7,13.3-21.6,17.4-33.8
			c0.4,0.2,0.8,0.3,1.3,0.5c5,1.5,10.6-0.3,16.8-5.4c1.7,4.2,5.2,10.6,11.6,12.3c1,0.3,2.1,0.4,3.2,0.4c2.6,0,5.3-0.8,8.2-2.3
			C203.8,255.9,203.7,257.8,203.5,259.7z M300.3,306.3c-2.2,3.7-5.4,5.8-9.6,6.5c-19.8,3-30.9-2.6-34.7-8.8
			c-2.2-3.6-2.1-7.6,0.1-10.7c5.9-8.3,7.2-30.2,7.4-41.3c1.6,0.3,3.3,0.4,5.1,0.4c8.3-0.3,16.4-5,24.1-13.8c1,0.5,2.1,0.9,3.3,1.3
			c1.6,5.5,3.4,12.5,5,19.9C305.5,281.8,305.3,298,300.3,306.3z M360.9,239.3c11.3,22.5,15.7,39.9,12.8,50.4
			c-1.3,4.7-4.1,7.9-8.5,9.8c-20.4,8.9-34,6.1-40,0.5c-3.4-3.3-4.6-7.7-3-11.8c4.2-11.4-2-38.5-4.7-49c6.9-2.5,14.1-7.4,20.8-16.3
			c2.4,0.2,7.5,0.2,13-1.2C354.2,226.7,357.7,232.8,360.9,239.3z M390.5,165.3c-4.6,11-20.8,14.4-21,14.5l-2.3,0.5l0.3,2.3
			c1.8,12.6-0.3,22-6.2,27.9c-2.3,2.4-5.1,4-7.9,5.1c-0.8,0.3-1.6,0.6-2.4,0.8h0c-0.9,0.2-1.7,0.5-2.5,0.6c-6,1.3-11.1,0.7-11.1,0.7
			l-1.2-0.2l-0.8,0.8l0,0l-0.2,0.3c-4.5,6.2-9.1,10.4-13.6,13c-2.3,1.4-4.6,2.4-6.8,3h0c-1.1,0.4-2.2,0.6-3.3,0.8
			c-4.4,0.8-8.3,0.5-11.4-0.2c-1.1-0.2-2-0.5-2.9-0.8c-1.3-0.4-2.3-0.9-3-1.2c-0.5-0.2-0.7-0.4-0.8-0.4l-1.9-1.1l-1.3,1.7
			c-7.1,8.7-14.4,13.3-21.7,13.6c-1.8,0.1-3.4-0.1-4.9-0.5c-0.9-0.2-1.7-0.5-2.5-0.8c-0.9-0.3-1.8-0.7-2.5-1.1
			c-2.9-1.6-4.6-3.3-4.7-3.3l-2-2.2l-1.8,2.4c-4.2,5.7-9.1,8.8-14.6,9.2c-10.8,0.7-20.5-9.3-20.6-9.4l-1.8-1.9l-1.8,2
			c-0.7,0.8-1.4,1.5-2.1,2.2c-0.9,0.8-1.7,1.6-2.6,2.3c-0.9,0.7-1.7,1.4-2.5,2c-3.9,2.8-7.4,3.8-10.3,3.1
			c-6.7-1.8-9.2-12.3-9.3-12.4l-1-4.3l-3.2,3c-4.1,3.9-10,8.2-14.9,6.8c-0.4-0.1-0.8-0.3-1.2-0.5c-0.8-0.4-1.5-0.9-2.2-1.5
			c-0.7-0.7-1.3-1.5-1.9-2.3v0c-1.9-2.9-2.8-6.2-2.8-6.2l-0.7-3.1l-2.8,1.4c-1.1,0.5-2.1,1-3.1,1.4c-1,0.5-2,0.9-3,1.2
			c-1,0.4-2,0.7-2.9,1c-6.6,2.1-10.1,1.2-11.9-0.1c-3.4-2.5-3.1-8.7-2.6-10.9l0.6-3.1l-3.1,0.1c-6.2,0.2-10.5-1-12.8-3.8
			c-0.2-0.2-0.4-0.5-0.6-0.8c-0.4-0.5-0.6-1.1-0.8-1.8c-0.4-1.1-0.6-2.3-0.7-3.6c-0.1-2.1,0.2-4.4,0.8-6.5c5.8,1,11.9,1.5,18.2,1.5
			c27.2,0,57.1-8.8,79.9-23.6c19-12.4,31.5-27.5,36.4-43.6c2.9,2.5,5.6,4.4,8.4,5.7c3,1.4,5.8,1.9,8.4,1.9c4,0,7.4-1.2,10.2-2.5
			c13.1-6,19.8-13.8,20-23.3c0.5-23.9-42.6-50.6-60.4-60.7c0.1-1.4,0-2.5,0-3.2c4.6-6.6,5.8-11.7,3.8-15.4c-1.7-3.2-5.2-4.3-7.6-4.6
			c-0.5-5.1-2.4-8.9-5.9-11.4c-3.1-2.2-7-3-10.6-3.1l0-0.3c0.5-6,2.4-10,5.7-11.8c6.8-3.8,17.5,1.7,17.7,1.8l2.6,1.4l0.9-2.8
			c1.2-3.4,2.8-5.4,5-5.9c5.3-1.3,13.3,5.3,15.9,7.9l2.1,2.1l1.7-2.4c3.3-4.7,6.8-7,10.4-6.9c7.7,0.2,14.4,10.7,14.5,10.8l1.4,2.3
			l2.2-1.6c5.6-4.2,10.5-5.7,14.6-4.5c6,1.8,8.5,9.2,8.5,9.3l1.1,3.3l2.8-2.1c2.5-2,4.8-2.6,6.9-1.9c4.8,1.5,8.2,9,9.2,11.7l0.7,2.1
			l2.1-0.4c7.2-1.3,12.2-0.9,13.6,1.3c1.6,2.4-0.8,7.7-2.2,9.9l-2.4,3.7l4.4,0.2c12.9,0.6,20.8,3.6,23,8.7c2.7,6.5-3.9,16-6.7,19.1
			l-3.3,3.7l4.9,0.5c8.2,0.8,13.3,3.1,14.9,7c2.3,5.4-2.6,13.4-4.6,16l-2.2,2.7l3.3,1.2c7.8,2.8,12.1,6.5,13.1,11.1
			c1.8,9.1-9.8,19.5-9.9,19.7l-1.6,1.4l1.1,1.8C391.6,151.5,393.1,159.1,390.5,165.3z"/>
		<path d="M180,87.7c-0.7,0-1.3,0.1-2,0.2c-1.6,0.4-3,1.3-4.3,2.5v0c-1.6,1.6-2.8,3.8-3.5,6.3c0,0,0,0,0,0c-0.5,1.7-0.7,3.5-0.7,5.4
			c0,0.3,0,0.6,0,1c0.3,7.7,4.8,13.5,10.5,13.5c5.9,0,10.5-6.4,10.5-14.5S185.9,87.7,180,87.7z M180,111.7c-2.6,0-5.5-3.9-5.5-9.5
			c0-5.6,2.9-9.5,5.5-9.5s5.5,3.9,5.5,9.5C185.5,107.8,182.6,111.7,180,111.7z"/>
		<path d="M128.2,177.1c0.5-1.7,0.9-3.3,1.3-4.7c0.5,0,1,0,1.4-0.1c21.1-1.3,37.8-13.4,37.8-28.2c0-7.5-4.2-14.2-11.2-19.3
			c-0.7-0.5-1.4-1-2.1-1.4c-0.7-0.4-1.4-0.9-2.1-1.3c-7.1-4-16.2-6.3-26.1-6.3c-22.9,0-41.5,12.7-41.5,28.3
			c0,15,17.1,27.2,38.7,28.2c-0.2,0.9-0.5,1.9-0.8,2.8c0,0,0,0,0,0c-0.5,1.8-1.1,3.7-1.8,5.7c-1.1,3.2-2.6,5.2-3.9,5.3
			c-0.1,0-0.3,0-0.4,0c-2.6-0.3-6.3-4.9-8.1-8.2l-4.4,2.5c3.7,6.6,7.4,9.1,10,10.1c1,0.4,1.9,0.5,2.5,0.6c0.1,0,0.3,0,0.4,0
			c0.2,0,0.3,0,0.4,0c0.9-0.1,1.7-0.3,2.5-0.7c1.5-0.8,2.8-2.1,3.9-4c2.4,2.8,5.3,5.2,8.3,5.2c0.5,0,1.1-0.1,1.6-0.2
			c4.9-1.6,5.4-9.5,5.4-11.1l-5-0.1c0,0.1,0,0.2,0,0.3c-0.1,2.8-1.1,5.8-1.9,6.1c0,0-1.8,0.3-6.2-5.2l-0.2,0c0,0,0-0.1,0-0.1
			C127.3,179.9,127.8,178.5,128.2,177.1z M125.4,167.4c-19.3-0.6-34.8-10.8-34.8-23.3c0-12.8,16.4-23.3,36.5-23.3
			c9,0,17.4,2.1,23.7,5.6c0.8,0.4,1.5,0.8,2.1,1.3c0.7,0.5,1.4,1,2.1,1.4c5.4,4.1,8.6,9.3,8.6,15c0,11.4-12.9,20.9-29.8,22.9
			c-1,0.1-2,0.2-3,0.3c-0.1,0-0.2,0-0.3,0c-0.8,0-1.7,0.1-2.6,0.1c-0.3,0-0.5,0-0.8,0C126.5,167.5,125.9,167.4,125.4,167.4z"/>
	</g>
</g>
<g id="Layer_2">
</g>
</svg>
