<?xml version="1.0" encoding="utf-8"?>
<!-- Generator: Adobe Illustrator 19.1.0, SVG Export Plug-In . SVG Version: 6.00 Build 0)  -->
<!DOCTYPE svg PUBLIC "-//W3C//DTD SVG 1.1//EN" "http://www.w3.org/Graphics/SVG/1.1/DTD/svg11.dtd">
<svg version="1.1" xmlns="http://www.w3.org/2000/svg" xmlns:xlink="http://www.w3.org/1999/xlink" x="0px" y="0px"
	 viewBox="0 0 399.4 317" style="enable-background:new 0 0 399.4 317;" xml:space="preserve">
<style type="text/css">
	.st0{fill:#FFFFFF;stroke:#000000;stroke-width:3;stroke-miterlimit:10;}
	.st1{fill:none;stroke:#000000;stroke-width:3;stroke-miterlimit:10;}
</style>
<g id="Layer_1">
	<path class="st0" d="M290,314.2c-33,5-44.5-13-37-23.5c6.1-8.5,6.9-33.9,7-43.1c7.4,2.4,18.5,1.9,31-13.4c0,0,2.2,1.3,5.9,2.3
		C303.6,259.3,315.6,310.4,290,314.2z"/>
	<path class="st0" d="M365.2,300.8c-33.9,14.9-51.3-1.1-46.3-14.5c4.3-11.6-3.2-41.8-5.4-49.8c7.1-2,15-6.8,22.6-17.3
		c0,0,7.5,1,15.4-1.6C365.4,241,390.7,289.6,365.2,300.8z"/>
	<path class="st0" d="M146,236.7c-7.3,24.8-21.6,60.5-42.2,52.2c-31-12.4-31.8-33.7-20-39c9.3-4.1,22.3-24.5,27.4-32.9
		c2.2,3.8,6.8,6.5,15.9,6.2C127,223.2,122.9,244.6,146,236.7z"/>
	<path class="st0" d="M205.5,248.3c-0.7,28.6-6,69.8-30.1,67c-36.7-4.3-43.7-26.9-32.6-35.9c7-5.7,13.7-23.5,17.5-35.6
		c4.2,3.3,10.8,3.9,20.7-5.6C181,238.2,186.7,262.7,205.5,248.3z"/>
	<path class="st0" d="M387,140.2c21,33-18,41-18,41c3.4,24.2-7.5,33.2-17.6,36.4c-7.9,2.5-15.4,1.6-15.4,1.6
		c-7.6,10.4-15.5,15.3-22.6,17.3c-6.6,1.8-12.4,1.1-16.5,0c-3.7-1-5.9-2.3-5.9-2.3c-12.5,15.3-23.7,15.8-31,13.4
		c-5.6-1.8-9-5.4-9-5.4c-17,23-39,0-39,0c-2.3,2.5-4.5,4.5-6.5,6.1c-18.8,14.4-24.5-10.1-24.5-10.1c-10,9.5-16.5,8.8-20.7,5.6
		c-4.6-3.6-6.3-10.6-6.3-10.6c-3,1.5-5.7,2.6-8,3.4c-23.1,8-19-13.4-19-13.4c-9,0.3-13.7-2.4-15.9-6.2c-2.7-4.7-1.5-11.2-0.1-15.6
		c6.3,1.2,13,1.8,20,1.8c50.3,0,106.3-29.9,114.9-69.5c11.4,11.9,19.5,11.1,27.3,7.5c52.1-23.9-19.9-67.9-41.9-80.2
		c0.3-3,0-5.4,0-5.4c12.5-17.5-3.7-17-3.7-17c0-13.8-10.8-15.1-18.4-14.3l1.8-3.1c2-25,27-12,27-12c6-18,25,1,25,1c14-20,29,4,29,4
		c20-15,27,6,27,6c13-10,20,11,20,11c27-5,14,15,14,15c45,2,18,32,18,32c31,3,12,27,12,27C414,116.2,387,140.2,387,140.2z"/>
	<path class="st0" d="M224.8,73.3c-0.5,0.3-1.1,0.5-1.7,0.7c0-0.8,0.1-1.5,0.1-2.2C223.8,72.2,224.3,72.7,224.8,73.3z"/>
	<ellipse class="st0" cx="179" cy="101.2" rx="8" ry="12"/>
	<path class="st0" d="M224.8,73.3c-0.5,0.3-1.1,0.5-1.7,0.7c0-0.8,0.1-1.5,0.1-2.2C223.8,72.2,224.3,72.7,224.8,73.3z"/>
	<path class="st0" d="M93,89.2c-4.4,0-8,5.4-8,12s3.6,12,8,12s8-5.4,8-12S97.5,89.2,93,89.2z M179,89.2c-4.4,0-8,5.4-8,12
		s3.6,12,8,12s8-5.4,8-12S183.5,89.2,179,89.2z"/>
	<path class="st0" d="M234.2,118.7c-10.1-15.2-11.7-32.5-11.2-44.8c-3.5,1-8.4,0.4-15.3-2.9c0,0-14.6,12.1-24.2-0.7
		c-0.7-0.9-1.3-1.9-1.9-3c0,0-7.3,17-18.8,4.8c0,0-17.3,20.2-27.2,0c0,0-8.9,19.1-26.7,2.1c0,0-5.2,15.4-23,3.2c0,0-9,1.2-15.6-1.5
		c0.3,12.2-1.6,28.5-11.2,42.8c-5.4,8.1-10.2,13.8-14.5,17.7c6,31.9,29.8,58,66.5,65c6.3,1.2,13,1.8,20,1.8
		c50.3,0,106.3-29.9,114.9-69.5C242.4,130,238.5,125.1,234.2,118.7z M93,89.2c4.4,0,8,5.4,8,12s-3.6,12-8,12s-8-5.4-8-12
		S88.6,89.2,93,89.2z M128.4,168.9c-0.6,0-1.3,0-1.9,0h-0.3c-21.5,0-39-11.5-39-25.8s17.5-25.8,39-25.8c10.5,0,20.1,2.8,27.1,7.2
		c7.4,4.7,11.9,11.3,11.9,18.6C165.1,156.9,148.9,168.1,128.4,168.9z M179,113.2c-4.4,0-8-5.4-8-12s3.6-12,8-12s8,5.4,8,12
		S183.5,113.2,179,113.2z"/>
	<ellipse class="st0" cx="93" cy="101.2" rx="8" ry="12"/>
	<ellipse class="st0" cx="179" cy="101.2" rx="8" ry="12"/>
	<path class="st1" d="M127.5,155.2c0,0,0.8,4.6-1.1,13.7"/>
	<path class="st0" d="M59,118.7c-5.4,8.1-10.2,13.8-14.5,17.7c-10,9-17.4,8.1-24.5,4.8C-34.1,116.5,45.5,70,64.3,59.8
		c0.1,0.1,0.2,0.1,0.2,0.1c-1.6,4.5-1.5,7.9-0.4,10.5c1.2,2.7,3.5,4.5,6.2,5.5C70.6,88.1,68.6,104.4,59,118.7z"/>
	<path class="st0" d="M273.2,141.2c-7.8,3.6-15.9,4.3-27.3-7.5c-3.5-3.7-7.4-8.6-11.7-15c-10.1-15.2-11.7-32.5-11.2-44.8
		c0.6-0.2,1.2-0.4,1.7-0.7c4.7-2.3,6.1-8,6.5-12.3C253.4,73.3,325.4,117.4,273.2,141.2z"/>
	<path class="st0" d="M224.8,73.3c-0.5,0.3-1.1,0.5-1.7,0.7c0-0.8,0.1-1.5,0.1-2.2C223.8,72.2,224.3,72.7,224.8,73.3z"/>
	<path class="st0" d="M231.3,55.6c0,0,0.3,2.3,0,5.4c-0.4,4.3-1.8,9.9-6.5,12.3c-0.5-0.5-1-1.1-1.6-1.6c0,0.7-0.1,1.5-0.1,2.2
		c-3.5,1-8.4,0.4-15.3-2.9c0,0-14.6,12.1-24.2-0.7c-0.7-0.9-1.3-1.9-1.9-3c0,0-7.3,17-18.8,4.8c0,0-17.3,20.2-27.2,0
		c0,0-8.9,19.1-26.7,2.1c0,0-5.2,15.4-23,3.2c0,0-9,1.2-15.6-1.5c-2.7-1.1-5-2.8-6.2-5.5c-1.1-2.5-1.2-5.9,0.4-10.5
		c0,0-0.1,0-0.2-0.1c-1.9-1.3-16.6-12.6-1.9-20.6c0,0-3.1-19.1,15.2-12.8c0,0,8.9-20.2,25.1-6.9c0,0,15.2-21.8,29.8-6.4
		c0,0,13.6-18.6,22.5-0.5c0,0,18.8-13.8,25.1,4.3c0,0,22-9,22,9c0,0,3.2-1,7.3-1.5c7.6-0.8,18.4,0.5,18.4,14.3
		C227.6,38.6,243.9,38.1,231.3,55.6z"/>
	<path class="st0" d="M224.8,73.3c-0.5,0.3-1.1,0.5-1.7,0.7c0-0.8,0.1-1.5,0.1-2.2C223.8,72.2,224.3,72.7,224.8,73.3z"/>
	<path class="st0" d="M165.1,143.2c0,13.8-16.3,25-36.8,25.8c-0.6,0-1.3,0-1.9,0h-0.3c-21.5,0-39-11.5-39-25.8s17.5-25.8,39-25.8
		c10.5,0,20.1,2.8,27.1,7.2C160.5,129.3,165.1,135.9,165.1,143.2z"/>
	<path class="st1" d="M110.5,185.2c0,0,15.2,7.9,15.2-14.8c0-1.8-3.5,19.8,7.8,15.2"/>
</g>
<g id="Layer_2">
</g>
</svg>
